<svg width="16" height="16" viewBox="0 0 16 16" fill="none" xmlns="http://www.w3.org/2000/svg">
<g clip-path="url(#clip0_75_340)">
<path d="M0.76 4.5699H15.24V14.4749H16V1.5249H15.24V3.8099H0.76V1.5249H0V14.4749H0.76V4.5699ZM0.76 14.4749H15.24V15.2399H0.76V14.4749Z" fill="black"/>
<path d="M2.28501 6.09501V12.955H13.715V6.09501H2.28501ZM6.85501 9.90501H6.09501V10.665H5.33501V11.43H4.57001V10.665H5.33501V9.90501H6.09501V9.14501H5.33501V8.38001H4.57001V7.62001H5.33501V8.38001H6.09501V9.14501H6.85501V9.90501ZM11.43 9.90501H8.38001V9.14501H11.43V9.90501ZM4.57001 2.28501H5.33501V3.05001H4.57001V2.28501ZM3.05001 2.28501H3.81001V3.05001H3.05001V2.28501ZM1.52501 2.28501H2.28501V3.05001H1.52501V2.28501ZM0.76001 0.76001H15.24V1.52501H0.76001V0.76001Z" fill="black"/>
</g>
<defs>
<clipPath id="clip0_75_340">
<rect width="16" height="16" fill="white"/>
</clipPath>
</defs>
</svg>
